HIERARCHY
ROOT Hips
{
    OFFSET 0.0 0.0 0.0
    CHANNELS 6 Xposition Yposition Zposition Zrotation Xrotation Yrotation
    JOINT LeftHipJoint
    {
        OFFSET 0.1 0.0 0.0
        CHANNELS 3 Zrotation Xrotation Yrotation
        JOINT LeftUpLeg
        {
            OFFSET 123.11278546786116 0.0 0.0
            CHANNELS 3 Zrotation Xrotation Yrotation
            JOINT LeftLeg
            {
                OFFSET 0.0 0.0 -412.5461965458618
                CHANNELS 3 Zrotation Xrotation Yrotation
                JOINT LeftFoot
                {
                    OFFSET 0.0 0.0 -387.20731833568334
                    CHANNELS 3 Zrotation Xrotation Yrotation
                    End Site
                    {
                        OFFSET 0.0 -0.1 0.0
                    }
                }
            }
        }
    }
    JOINT LowerBack
    {
        OFFSET 0.0 0.0 0.1
        CHANNELS 3 Zrotation Xrotation Yrotation
        JOINT Spine
        {
            OFFSET 0.0 0.0 213.80919839724848
            CHANNELS 3 Zrotation Xrotation Yrotation
            JOINT Spine1
            {
                OFFSET 0.0 0.0 253.05247650208455
                CHANNELS 3 Zrotation Xrotation Yrotation
                JOINT LeftShoulder
                {
                    OFFSET 0.1 0.0 0.0
                    CHANNELS 3 Zrotation Xrotation Yrotation
                    JOINT LeftArm
                    {
                        OFFSET 140.0552358909119 0.0 0.0
                        CHANNELS 3 Zrotation Xrotation Yrotation
                        JOINT LeftForeArm
                        {
                            OFFSET 259.7760562285014 0.0 0.0
                            CHANNELS 3 Zrotation Xrotation Yrotation
                            JOINT LeftHand
                            {
                                OFFSET 243.91331885667023 0.0 0.0
                                CHANNELS 3 Zrotation Xrotation Yrotation
                                End Site
                                {
                                    OFFSET 0.1 0.0 0.0
                                }
                            }
                        }
                    }
                }
                JOINT Neck
                {
                    OFFSET 0.0 0.0 0.1
                    CHANNELS 3 Zrotation Xrotation Yrotation
                    JOINT Neck1
                    {
                        OFFSET 0.0 0.0 106.79888624778567
                        CHANNELS 3 Zrotation Xrotation Yrotation
                        End Site
                        {
                            OFFSET 0.0 0.0 116.80380681127909
                        }
                    }
                }
                JOINT RightShoulder
                {
                    OFFSET -0.1 0.0 0.0
                    CHANNELS 3 Zrotation Xrotation Yrotation
                    JOINT RightArm
                    {
                        OFFSET -140.0552358909119 0.0 0.0
                        CHANNELS 3 Zrotation Xrotation Yrotation
                        JOINT RightForeArm
                        {
                            OFFSET -259.7760562285014 0.0 0.0
                            CHANNELS 3 Zrotation Xrotation Yrotation
                            JOINT RightHand
                            {
                                OFFSET -243.91331885667023 0.0 0.0
                                CHANNELS 3 Zrotation Xrotation Yrotation
                                End Site
                                {
                                    OFFSET -0.1 0.0 0.0
                                }
                            }
                        }
                    }
                }
            }
        }
    }
    JOINT RightHipJoint
    {
        OFFSET -0.1 0.0 0.0
        CHANNELS 3 Zrotation Xrotation Yrotation
        JOINT RightUpLeg
        {
            OFFSET -123.11278546786116 0.0 0.0
            CHANNELS 3 Zrotation Xrotation Yrotation
            JOINT RightLeg
            {
                OFFSET 0.0 0.0 -412.5461965458618
                CHANNELS 3 Zrotation Xrotation Yrotation
                JOINT RightFoot
                {
                    OFFSET 0.0 0.0 -387.20731833568334
                    CHANNELS 3 Zrotation Xrotation Yrotation
                    End Site
                    {
                        OFFSET 0.0 -0.1 0.0
                    }
                }
            }
        }
    }
}
MOTION
Frames: 9
Frame Time: 0.03333333333333333
0.0 0.0 784.5186090974271 24.700658090559543 -2.434651541937862 5.308023373202545 0.0 0.0 -2.981770013872047e-16 -1.0121876821755982 -11.875222764798549 -0.04407692359938083 2.2551693101769423 24.79429916148662 -1.2063954689102425 0.0 0.0 -7.951386703658792e-16 0.0 0.0 -2.981770013872047e-16 0.07321016222709438 0.8700016345305835 -1.593097005839062 3.774641284066066 -6.691818149608447e-16 8.176210421018436e-16 0.0 0.0 9.93923337957349e-17 -20.25362062469446 16.24612881260151 80.67936263112702 -26.563881734892195 -3.1893276026099733e-15 3.1278488132105976e-15 7.951386703658794e-16 3.975693351829397e-16 2.9817700138720476e-15 0.0 0.0 9.93923337957349e-17 -2.390097074883691 -4.34022342442773 -1.374344841024081 0.0 0.0 9.93923337957349e-17 29.67120570618569 16.847438158914986 -82.41800415028345 32.29951108857631 3.0550435448701284e-15 -8.846677459514686e-16 0.0 0.0 -1.5902773407317584e-15 0.0 0.0 -2.981770013872047e-16 -0.735788103933886 -8.659704218506313 -3.5505192703327073 0.7359946228667331 29.194407424701488 0.46483572267194295 0.0 0.0 0.0
0.0 0.0 784.5186090974271 24.603271091596202 -2.5162836782829703 5.356606832982103 0.0 0.0 2.981770013872047e-16 -1.0240953580042635 -11.92687335246431 -0.07669979024872711 2.2823662776645635 25.040445359318987 -1.2731881607738722 0.0 0.0 0.0 0.0 0.0 2.981770013872047e-16 0.08291808564736805 0.9782999076582242 -1.6674647174099215 3.726927904796308 2.883232375615742e-16 -3.077153863467704e-16 0.0 0.0 9.93923337957349e-17 -19.700998597228796 16.082393690385196 80.56332125018078 -26.994054275903284 -1.956144054305358e-15 -3.673059783998573e-16 -7.241565020238542e-33 3.975693351829397e-16 2.0872390097104334e-15 0.0 0.0 9.93923337957349e-17 -2.41121350187054 -4.457300709236717 -1.3196314753017981 0.0 0.0 9.93923337957349e-17 29.648479321611422 16.89432937463553 -82.46755836984961 31.938891286039702 8.298388234275711e-15 -5.682959926924471e-15 0.0 0.0 1.5902773407317584e-15 0.0 0.0 2.981770013872047e-16 -0.7529008490124071 -8.796307349802785 -3.616546795360751 0.7260558549562779 29.413554620062477 0.48983762809841286 0.0 0.0 7.951386703658792e-16
0.0 0.0 784.5186090974271 24.52481006682036 -2.5141714326681064 5.3569766045022424 0.0 3.975693351829396e-16 0.0 -1.019364792450643 -11.969163774311907 -0.08507219933769151 2.264891339764139 25.092603003894297 -1.304177152343489 0.0 0.0 3.975693351829396e-16 0.0 3.975693351829396e-16 0.0 0.09308412159024347 1.107407173357096 -1.6596656112862709 3.7067267311863925 8.969680201067373e-17 -3.0123552891829653e-16 0.0 0.0 9.93923337957349e-17 -19.06860727922673 15.895341380198463 80.33385248671087 -27.460773291323314 1.3754952815627021e-15 2.2845643210797174e-14 0.0 0.0 2.981770013872047e-16 0.0 0.0 9.93923337957349e-17 -2.4113244845533126 -4.61900934266047 -1.3099898774396639 0.0 0.0 9.93923337957349e-17 29.911108566559108 16.910738905253965 -82.65705271815158 31.363624372818844 1.6653625726346664e-14 -1.1282458661034141e-14 0.0 0.0 -1.5902773407317584e-15 0.0 3.975693351829396e-16 0.0 -0.7540708190438506 -8.88318800368045 -3.6683511427934357 0.6741008365882516 29.394589803196773 0.5488709564033996 0.0 0.0 0.0
0.0 0.0 784.5186090974271 24.598444181023744 -2.465670868111325 5.393989878355801 0.0 0.0 -4.969616689786745e-16 -1.0275595246079807 -12.05807970435917 -0.10248758848167405 2.2535548897993474 25.04707955727444 -1.409227280227637 0.0 1.5902773407317584e-15 0.0 0.0 0.0 -4.969616689786745e-16 0.09931103169984738 1.181067096053423 -1.7339273875525012 3.840453609011459 -3.97346079756344e-16 1.3321755892885976e-17 0.0 0.0 -1.987846675914698e-16 -18.61215488487936 15.694793745838904 80.14742517086023 -27.811870667769362 -3.785301865680825e-15 1.0326081443716354e-14 0.0 0.0 1.689669674527493e-15 0.0 0.0 -1.987846675914698e-16 -2.4599936794542954 -4.716579110108926 -1.225361437067955 0.0 0.0 -1.987846675914698e-16 29.976767903346072 16.43174536671299 -82.4189485174575 30.755949370497706 -8.434369384834182e-16 -3.0666826070823197e-15 0.0 0.0 0.0 0.0 0.0 -4.969616689786745e-16 -0.7598917388573743 -8.94818347851597 -3.752404784428232 0.6250799149752984 29.275320941793904 0.6641978766299178 0.0 0.0 -7.951386703658792e-16
0.0 0.0 784.5186090974271 24.650838556972644 -2.437989551574605 5.35554077684956 0.0 0.0 9.93923337957349e-17 -1.0244441218293026 -12.000454850409376 -0.01774063453316322 2.3024638646537805 25.09566006758573 -1.5633083091205482 0.0 0.0 7.951386703658792e-16 0.0 0.0 9.93923337957349e-17 0.10224981332339982 1.2136887544645414 -1.7613462243937252 3.8223733066272527 2.6486347678519134e-16 -1.0033147385331304e-15 0.0 0.0 9.93923337957349e-17 -18.025674234311523 15.901332138999168 80.06144696384709 -27.911133617816905 2.4685051568940787e-15 -1.6909102374527055e-15 0.0 0.0 -7.951386703658792e-16 0.0 0.0 9.93923337957349e-17 -2.4429785266758546 -4.793349614097393 -1.2090567923796458 0.0 0.0 9.93923337957349e-17 30.059385256134615 16.718760622984956 -82.62894332244177 30.51385056327249 5.857548907714962e-15 -1.4784698943103802e-14 1.7655625192200634e-31 -6.361109362927035e-15 3.1805546814635176e-15 0.0 0.0 9.93923337957349e-17 -0.7622621755292515 -8.958753142776036 -3.682599338127251 0.6731843188571919 29.409699465939184 0.5555939326998245 0.0 0.0 -7.951386703658792e-16
0.0 0.0 784.5186090974271 24.80144967357418 -2.4145415336569838 5.33994965034052 0.0 0.0 -9.93923337957349e-17 -1.0332958570626707 -12.108708000211436 -0.017195991071181485 2.317104364467939 25.23858403404148 -1.539425186289136 0.0 -1.5902773407317584e-15 0.0 0.0 0.0 -9.93923337957349e-17 0.10777676478018287 1.2801095778686016 -1.7639109837538616 3.9181578995287056 1.1292543107175338e-16 3.939391568661664e-16 0.0 0.0 0.0 -17.462630351622536 16.03783798663649 79.90793199555142 -27.973760362468592 1.0478293076600495e-15 -9.169380079460707e-16 1.5902773407317588e-15 1.1927080055488192e-15 9.93923337957349e-17 0.0 0.0 0.0 -2.584886822880888 -4.91195419950391 -1.109587426530477 0.0 0.0 0.0 30.0841781678332 16.656456462024696 -82.60484976299759 30.15642310925912 -1.1695303165253686e-14 -6.731016962156463e-15 6.361109362927035e-15 8.827812596100317e-32 1.5902773407317588e-15 0.0 0.0 -9.93923337957349e-17 -0.774978647382234 -9.111786059136595 -3.652039179556 0.6966124228916176 29.650496947807188 0.5644458232553662 0.0 0.0 7.951386703658792e-16
0.0 0.0 784.5186090974271 24.82418538591526 -2.469700755123356 5.304443515277684 0.0 0.0 -2.981770013872047e-16 -1.015723628293323 -11.961571522956579 0.04353827319075423 2.3463461139429023 25.355767732687372 -1.6619972633755389 0.0 0.0 -7.951386703658792e-16 0.0 0.0 -2.981770013872047e-16 0.11164372205466946 1.3321634791685686 -1.715088857291277 3.900352581562979 1.6822826021973407e-16 -9.007776162512468e-16 0.0 0.0 -4.969616689786745e-17 -16.789069475283583 16.255395840566166 79.71872198954478 -28.047474220017293 2.342994881820011e-15 -6.099375563125261e-15 7.951386703658792e-16 7.241565020238542e-33 1.0436195048552165e-15 0.0 0.0 -4.969616689786745e-17 -2.5375495413860536 -4.964753102541147 -1.0693639921570735 0.0 0.0 -4.969616689786745e-17 29.978139399824506 16.8737785926488 -82.91722571757646 29.800145384893767 -1.3930101319349926e-14 -2.875906616744582e-15 0.0 0.0 0.0 0.0 0.0 -2.981770013872047e-16 -0.7584523467222933 -8.962024674475948 -3.626889746250474 0.7000693246336992 29.757041491979685 0.5556711303722284 0.0 0.0 0.0
0.0 0.0 784.5186090974271 24.972305379217342 -2.2878276135572833 5.262408507949903 0.0 0.0 9.93923337957349e-17 -1.0471763407041068 -12.211889801635715 0.1141818787789444 2.4090081322501504 25.405451634808763 -1.7739159049191047 0.0 0.0 0.0 0.0 0.0 9.93923337957349e-17 0.10868217733541428 1.2850927676343025 -1.6229228952668708 4.017121527996455 -1.1674918677823487e-16 -4.93172752530037e-16 0.0 0.0 -1.4908850069360235e-16 -15.645216118674643 16.466455507448693 79.51283961272041 -28.099031559229644 -1.9980886565744047e-16 -2.4769565313376515e-15 0.0 0.0 -2.4848083448933725e-16 0.0 0.0 -1.4908850069360235e-16 -2.7191580249591167 -5.147836458182187 -1.0225284608792902 0.0 0.0 -1.4908850069360235e-16 29.394939094784384 16.795997158574735 -82.8412246579521 29.552045489451732 -9.22612315528637e-15 2.433516850055515e-15 -6.3611093629270335e-15 0.0 0.0 0.0 0.0 9.93923337957349e-17 -0.7823212251793437 -9.157615208011942 -3.6441749956846867 0.7208967321185906 29.89264655810963 0.6785006585129076 0.0 0.0 1.5902773407317582e-15
0.0 0.0 784.5186090974271 25.196213318197394 -2.121925790525718 5.23332221091824 0.0 0.0 -9.93923337957349e-17 -1.062419368526889 -12.29190949021931 0.2239646450285257 2.4833348925047023 25.429416880287015 -1.9796438806372192 0.0 0.0 -3.975693351829396e-16 0.0 0.0 -9.93923337957349e-17 0.10650372762567521 1.2496392785527495 -1.5357767391182993 4.076837547116783 -8.165270347969235e-17 5.001825391453503e-16 0.0 0.0 -9.93923337957349e-17 -14.384540603629995 17.19175778876841 79.24584970047513 -28.323282567126228 -4.736802040104892e-15 7.194385337072477e-15 0.0 0.0 2.807833429729511e-15 0.0 0.0 -9.93923337957349e-17 -2.7534352247770584 -5.169379368337146 -1.0018810692458175 0.0 0.0 -9.93923337957349e-17 28.85957306863754 17.182288815680582 -83.19424056377383 29.312414936535134 8.426452498239794e-15 -5.491282100994562e-15 0.0 0.0 1.5902773407317584e-15 0.0 0.0 -9.93923337957349e-17 -0.7970502757708992 -9.256157198531854 -3.6043627927684505 0.768588597980029 29.964169530522764 0.5865757183706324 0.0 0.0 0.0
